<?xml version="1.0" encoding="utf-8"?>
<!-- Generator: Adobe Illustrator 18.0.0, SVG Export Plug-In . SVG Version: 6.00 Build 0)  -->
<!DOCTYPE svg PUBLIC "-//W3C//DTD SVG 1.1//EN" "http://www.w3.org/Graphics/SVG/1.1/DTD/svg11.dtd">
<svg version="1.1" id="Layer_1" xmlns="http://www.w3.org/2000/svg" xmlns:xlink="http://www.w3.org/1999/xlink" x="0px" y="0px"
	 viewBox="0 241 595.3 361.5" enable-background="new 0 241 595.3 361.5" xml:space="preserve">
<path fill="#BC0C32" stroke="#231F20" stroke-width="3" stroke-linecap="round" stroke-linejoin="round" stroke-miterlimit="10" d="
	M493.6,596.9c0.2-2.6,0.4-5.3,0.4-8.1c0-70.1-88.3-127.1-197.2-127.1s-197.2,57-197.2,127.1c0,2.6,0.2,5.5,0.4,8.1H493.6z"/>
<line fill="none" stroke="#231F20" stroke-width="3" stroke-linecap="round" stroke-linejoin="round" stroke-miterlimit="10" x1="100.1" y1="596.9" x2="3.9" y2="596.9"/>
<line fill="none" stroke="#231F20" stroke-width="3" stroke-linecap="round" stroke-linejoin="round" stroke-miterlimit="10" x1="590.2" y1="596.9" x2="494.1" y2="596.9"/>
<line fill="none" stroke="#231F20" stroke-width="3" stroke-linecap="round" stroke-linejoin="round" stroke-miterlimit="10" x1="227" y1="469.8" x2="226.8" y2="327.8"/>
<line fill="none" stroke="#231F20" stroke-width="3" stroke-linecap="round" stroke-linejoin="round" stroke-miterlimit="10" x1="370.9" y1="299.1" x2="227.4" y2="326.7"/>
<line fill="none" stroke="#231F20" stroke-width="3" stroke-linecap="round" stroke-linejoin="round" stroke-miterlimit="10" x1="341.8" y1="464.1" x2="342.2" y2="395.5"/>
<line fill="none" stroke="#231F20" stroke-width="3" stroke-linecap="round" stroke-linejoin="round" stroke-miterlimit="10" x1="342.2" y1="395.1" x2="404.9" y2="392.9"/>
<polygon fill="#BC0C32" stroke="#231F20" stroke-width="3" stroke-linecap="round" stroke-linejoin="round" stroke-miterlimit="10" points="
	517.3,315.8 376.6,331.6 369.8,263 510.5,247.2 "/>
<rect x="405.5" y="361.8" transform="matrix(-0.9998 2.065241e-02 -2.065241e-02 -0.9998 931.7137 774.6527)" fill="#BC0C32" stroke="#231F20" stroke-width="3" stroke-linecap="round" stroke-linejoin="round" stroke-miterlimit="10" width="112.6" height="60.7"/>
<line fill="none" stroke="#231F20" stroke-width="3" stroke-linecap="round" stroke-linejoin="round" stroke-miterlimit="10" x1="223.5" y1="549.7" x2="250.6" y2="576.8"/>
<line fill="none" stroke="#231F20" stroke-width="3" stroke-linecap="round" stroke-linejoin="round" stroke-miterlimit="10" x1="247.3" y1="549.3" x2="221.4" y2="575.3"/>
<line fill="none" stroke="#231F20" stroke-width="3" stroke-linecap="round" stroke-linejoin="round" stroke-miterlimit="10" x1="325.6" y1="539.7" x2="372.6" y2="586.7"/>
<line fill="none" stroke="#231F20" stroke-width="3" stroke-linecap="round" stroke-linejoin="round" stroke-miterlimit="10" x1="367" y1="539.1" x2="322" y2="584.1"/>
</svg>
