<?xml version="1.0" encoding="utf-8"?>
<!-- Generator: Adobe Illustrator 18.0.0, SVG Export Plug-In . SVG Version: 6.00 Build 0)  -->
<!DOCTYPE svg PUBLIC "-//W3C//DTD SVG 1.1//EN" "http://www.w3.org/Graphics/SVG/1.1/DTD/svg11.dtd">
<svg version="1.1" id="Layer_1" xmlns="http://www.w3.org/2000/svg" xmlns:xlink="http://www.w3.org/1999/xlink" x="0px" y="0px"
	 viewBox="0 0 271.7 163.4" enable-background="new 0 0 271.7 163.4" xml:space="preserve">
<path fill="#379375" stroke="#231F20" stroke-width="3" stroke-linecap="round" stroke-linejoin="round" stroke-miterlimit="10" d="
	M225.3,162c0.1-1.2,0.2-2.4,0.2-3.7c0-32-40.3-58-90-58s-90,26-90,58c0,1.2,0.1,2.5,0.2,3.7H225.3z"/>
<line fill="none" stroke="#231F20" stroke-width="3" stroke-linecap="round" stroke-linejoin="round" stroke-miterlimit="10" x1="45.7" y1="162" x2="1.8" y2="162"/>
<line fill="none" stroke="#231F20" stroke-width="3" stroke-linecap="round" stroke-linejoin="round" stroke-miterlimit="10" x1="269.4" y1="162" x2="225.5" y2="162"/>
<line fill="none" stroke="#231F20" stroke-width="3" stroke-linecap="round" stroke-linejoin="round" stroke-miterlimit="10" x1="103.6" y1="104" x2="103.5" y2="39.2"/>
<line fill="none" stroke="#231F20" stroke-width="3" stroke-linecap="round" stroke-linejoin="round" stroke-miterlimit="10" x1="169.3" y1="26.1" x2="103.8" y2="38.7"/>
<line fill="none" stroke="#231F20" stroke-width="3" stroke-linecap="round" stroke-linejoin="round" stroke-miterlimit="10" x1="156" y1="101.4" x2="156.2" y2="70.1"/>
<line fill="#D1C6C6" stroke="#231F20" stroke-width="3" stroke-linecap="round" stroke-linejoin="round" stroke-miterlimit="10" x1="156.2" y1="69.9" x2="184.8" y2="68.9"/>
<polygon fill="#379375" stroke="#231F20" stroke-width="3" stroke-linecap="round" stroke-linejoin="round" stroke-miterlimit="10" points="
	236.1,33.7 171.9,40.9 168.8,9.6 233,2.4 "/>
<rect x="185.1" y="54.7" transform="matrix(0.9998 -2.065262e-02 2.065262e-02 0.9998 -1.3711 4.3688)" fill="#379375" stroke="#231F20" stroke-width="3" stroke-linecap="round" stroke-linejoin="round" stroke-miterlimit="10" width="51.4" height="27.7"/>
<path fill="#FFFFFF" stroke="#231F20" stroke-width="3" stroke-linecap="round" stroke-linejoin="round" stroke-miterlimit="10" d="
	M118,150.1c-0.1-6.8-5.4-12.3-11.9-12.3s-11.8,5.5-11.9,12.3H118z"/>
<path fill="#FFFFFF" stroke="#231F20" stroke-width="3" stroke-linecap="round" stroke-linejoin="round" stroke-miterlimit="10" d="
	M176.6,154.4c0-0.3,0-0.6,0-0.9c0-10.5-8.5-18.9-18.9-18.9s-18.9,8.5-18.9,18.9c0,0.3,0,0.6,0,0.9H176.6z"/>
</svg>
